<?xml version="1.0" encoding="UTF-8"?>
<svg id="_0" data-name="0" xmlns="http://www.w3.org/2000/svg" viewBox="0 0 800 800">
  <defs>
    <style>
      .cls-1 {
        fill: #d8d8d8;
      }

      .cls-2 {
        fill: #a8a8a8;
      }

      .cls-3 {
        fill: #ebc494;
      }

      .cls-4 {
        fill: #cc8127;
      }
    </style>
  </defs>
  <path class="cls-4" d="M221.27,532.38l-15.57,57.35h594.3v57.49H0v-57.49l207.8-115.65h0s382.74-213.03,382.74-213.03l12.82-7.14c11.49-6.39-.24-43.64-30.54-43.64-25.64,3.83-380.95,57.69-380.95,57.69l-48.43-57.69H0v-57.49h800v57.49l-503.7,280.35-75.03,41.76Z"/>
  <g>
    <polygon class="cls-2" points="472.16 152.78 412.5 152.78 400 107.67 387.5 152.78 327.84 152.78 370.17 0 429.83 0 472.16 152.78"/>
    <rect class="cls-2" x="371.25" y="647.22" width="57.5" height="58.63"/>
    <polygon class="cls-2" points="647.22 784.65 591.81 800 561.12 689.23 549.48 647.22 609.14 647.22 647.22 784.65"/>
    <polygon class="cls-2" points="250.52 647.22 208.19 800 152.78 784.65 190.86 647.22 250.52 647.22"/>
  </g>
  <path class="cls-3" d="M590.54,261.05l-382.74,213.02c-34.93-170.35,123.79-146.13,368.92-236.46l13.82,23.44Z"/>
  <path class="cls-2" d="M285.45,526.7c-8.54,13.06-27.03,33.52-23.68,63.03h-56.07l15.57-57.35,75.03-41.76-10.85,36.08Z"/>
  <path class="cls-1" d="M594.49,589.73h-301.87c16.36-34.86,60.11-61.86,114.79-70.25l31.15,20.36v21.16c-4.94,2.39-16.74,6.68-26.62-.99-2.18-1.69-5.32-1.29-7.02.89-1.69,2.18-1.29,5.32.89,7.01,6.26,4.87,12.9,6.47,18.95,6.47,8.09,0,15.13-2.88,18.8-4.71,3.67,1.84,10.7,4.71,18.79,4.71,6.05,0,12.69-1.61,18.95-6.47,2.19-1.69,2.58-4.83.89-7.01-1.69-2.18-4.83-2.58-7.02-.89-9.87,7.66-21.67,3.38-26.61.98v-21.15l31.15-20.36c54.68,8.39,98.41,35.39,114.78,70.25Z"/>
</svg>